<svg width="252" height="63" viewBox="0 0 252 63" fill="none" xmlns="http://www.w3.org/2000/svg">
<rect x="0.915527" y="0.320068" width="250.169" height="62" rx="9" fill="#FF21AA"/>
<path d="M51.5243 28.8821C51.5243 30.006 51.0175 31.1961 50.0698 31.9895C51.2158 32.7829 51.7007 33.995 51.7007 35.0529V35.7581C51.7007 36.6617 51.4362 37.7636 50.7089 38.7113C49.4748 40.0997 48.1304 40.298 46.8081 40.3201C45.9927 40.3201 45.3095 40.2099 44.4059 39.7911C42.9734 39.1079 41.9596 37.1686 41.9155 35.119H44.7585C44.8687 36.86 45.7723 37.4991 46.8301 37.4771C47.9982 37.4771 48.8136 36.8821 48.8356 35.736V35.141C48.8136 34.017 47.9761 33.4661 46.8301 33.4661H45.2654V30.6892H46.8081C47.8659 30.6892 48.6593 30.1383 48.6814 28.8821C48.6593 27.6479 47.7778 27.163 46.8081 27.163C46.4114 27.141 46.0147 27.3173 45.618 27.6479C45.2434 27.9785 45.023 28.5956 44.9568 29.4991H42.0918C42.1139 28.4192 42.4224 27.141 43.1276 26.1052C44.3398 24.5184 45.596 24.3641 46.8081 24.3201C50.0698 24.3201 51.5243 26.59 51.5243 28.8821Z" fill="white" fill-opacity="0.95"/>
<path d="M63.5901 36.5294H59.3587L58.4331 40.1217H55.5681L59.7334 24.4303H63.2155L67.3807 40.1217H64.5157L63.5901 36.5294ZM62.8849 33.6865L61.4744 28.0225L60.0639 33.6865H62.8849Z" fill="white" fill-opacity="0.95"/>
<path d="M89.5226 40.1217H86.6576V27.2732H82.6246V40.1217H79.7595V24.4303H89.5226V40.1217Z" fill="white" fill-opacity="0.95"/>
<path d="M104.164 28.7939V35.7801C104.164 36.5515 103.9 37.6314 103.194 38.6231C102.004 40.0776 100.704 40.276 99.4259 40.3201C98.5223 40.3201 97.8391 40.1658 96.8914 39.703C95.4589 38.9757 94.6435 36.838 94.7096 35.7581V28.7719C94.7096 28.0005 94.952 26.9647 95.6352 26.017C96.8253 24.5625 98.1697 24.3641 99.4479 24.3201C100.351 24.3201 101.035 24.4743 101.938 24.9371C103.349 25.6203 104.23 27.714 104.164 28.7939ZM101.299 35.7581V28.8159C101.255 28.1107 101.013 27.6479 100.572 27.4495C100.153 27.2292 99.7785 27.119 99.4479 27.141C99.0953 27.119 98.6986 27.2292 98.2799 27.4495C97.8611 27.6479 97.6187 28.1107 97.5746 28.8159V35.7581C97.6187 36.4854 97.8611 36.9482 98.2799 37.1906C98.6986 37.411 99.0953 37.5212 99.4479 37.4991C99.7785 37.5212 100.153 37.411 100.572 37.1906C101.013 36.9482 101.255 36.4854 101.299 35.7581Z" fill="white" fill-opacity="0.95"/>
<path d="M112.653 33.2898H112.212V40.1217H109.347V24.4303H112.212V30.4468H112.653L116.708 24.4303H120.058L115.011 31.7691L120.19 40.1217H116.73L112.653 33.2898Z" fill="white" fill-opacity="0.95"/>
<path d="M124.763 37.4771H126.195C126.724 37.411 127.121 37.0804 127.363 36.4633L127.429 36.265H127.033L123.308 24.4303H126.305L128.663 32.0115L131.044 24.4303H134.041L130.118 36.9702C129.369 39.4165 127.87 40.298 125.931 40.298H124.763V37.4771Z" fill="white" fill-opacity="0.95"/>
<path d="M148.095 40.1217H145.23V27.2732H141.197V40.1217H138.332V24.4303H148.095V40.1217Z" fill="white" fill-opacity="0.95"/>
<path d="M156.808 33.2898H156.368V40.1217H153.503V24.4303H156.368V30.4468H156.808L160.864 24.4303H164.213L159.167 31.7691L164.346 40.1217H160.886L156.808 33.2898Z" fill="white" fill-opacity="0.95"/>
<path d="M175.42 36.5294H171.188L170.262 40.1217H167.397L171.563 24.4303H175.045L179.21 40.1217H176.345L175.42 36.5294ZM174.714 33.6865L173.304 28.0225L171.893 33.6865H174.714Z" fill="white" fill-opacity="0.95"/>
<path d="M186.256 40.1217H183.413V24.4303H186.366L189.275 31.5046L192.14 24.4303H195.159V40.1217H192.316V30.3586L190.2 35.692H188.393L186.256 30.3366V40.1217Z" fill="white" fill-opacity="0.95"/>
<path d="M203.451 40.1217H200.564V24.4303H203.429V33.4L207.241 24.4303H210.084V40.1217H207.219V31.3283L203.451 40.1217Z" fill="white" fill-opacity="0.95"/>
</svg>
