<svg width="146" height="43" viewBox="0 0 146 43" fill="none" xmlns="http://www.w3.org/2000/svg">
<path d="M145.5 38.6896C145.5 40.8069 143.832 42.5 141.796 42.5H4.20975C2.17315 42.5 0.5 40.8059 0.5 38.6896V4.31598C0.5 2.19989 2.17407 0.5 4.20975 0.5H141.795C143.831 0.5 145.499 2.19886 145.499 4.31598L145.5 38.6896Z" fill="#1F1F1F" stroke="#1F1F1F"/>
<path d="M32.375 21.2517C32.3443 17.8586 35.1722 16.2078 35.3015 16.1309C33.7 13.8116 31.2176 13.4947 30.3453 13.4695C28.2604 13.2515 26.238 14.7086 25.176 14.7086C24.0928 14.7086 22.4573 13.4905 20.6946 13.5263C18.4264 13.5611 16.3044 14.8655 15.1406 16.891C12.7388 21.0211 14.5301 27.0905 16.8312 30.4288C17.9823 32.0638 19.3273 33.8894 21.0879 33.8251C22.8102 33.7546 23.4536 32.7345 25.5321 32.7345C27.5916 32.7345 28.1957 33.8251 29.9913 33.7841C31.8398 33.7546 33.0036 32.1417 34.1144 30.492C35.4446 28.6181 35.9788 26.7725 36 26.6778C35.9565 26.663 32.41 25.3186 32.375 21.2517Z" fill="white"/>
<path d="M28.9833 11.2734C29.9096 10.1227 30.5435 8.55716 30.3675 6.96851C29.0267 7.02746 27.3499 7.8897 26.3843 9.01513C25.53 10.0069 24.7669 11.6324 24.964 13.161C26.4702 13.2726 28.0166 12.4062 28.9833 11.2734Z" fill="white"/>
<path d="M57.6797 31.8372H55.2825L53.9693 27.6756H49.4049L48.154 31.8372H45.8201L50.3423 17.6693H53.1354L57.6797 31.8372ZM53.5735 25.9296L52.3859 22.2301C52.2603 21.8522 52.0249 20.9622 51.6776 19.5611H51.6354C51.4971 20.1637 51.2744 21.0537 50.9682 22.2301L49.8018 25.9296H53.5735V25.9296Z" fill="white"/>
<path d="M69.3093 26.6037C69.3093 28.3412 68.8438 29.7145 67.9128 30.7227C67.0788 31.6202 66.0433 32.0684 64.8072 32.0684C63.4729 32.0684 62.5144 31.585 61.9307 30.6184H61.8884V36H59.6379V24.9845C59.6379 23.8922 59.6094 22.7711 59.5545 21.6214H61.5338L61.6594 23.2406H61.7016C62.4521 22.0206 63.5911 21.4116 65.1196 21.4116C66.3146 21.4116 67.3121 21.8875 68.1102 22.8403C68.9103 23.7942 69.3093 25.0483 69.3093 26.6037ZM67.0165 26.6868C67.0165 25.6924 66.7949 24.8727 66.3494 24.2275C65.8628 23.5547 65.2094 23.2183 64.3902 23.2183C63.835 23.2183 63.3304 23.4056 62.8796 23.7751C62.4278 24.1477 62.1323 24.6342 61.994 25.2368C61.9243 25.5178 61.8895 25.7478 61.8895 25.9288V27.6321C61.8895 28.3752 62.1154 29.0023 62.5672 29.5144C63.019 30.0265 63.6059 30.282 64.3279 30.282C65.1756 30.282 65.8353 29.9519 66.3072 29.294C66.7801 28.635 67.0165 27.7663 67.0165 26.6868Z" fill="white"/>
<path d="M80.9599 26.6037C80.9599 28.3412 80.4944 29.7145 79.5623 30.7227C78.7294 31.6202 77.6939 32.0684 76.4578 32.0684C75.1235 32.0684 74.165 31.585 73.5823 30.6184H73.5401V36H71.2896V24.9845C71.2896 23.8922 71.2611 22.7711 71.2062 21.6214H73.1854L73.311 23.2406H73.3533C74.1027 22.0206 75.2417 21.4116 76.7713 21.4116C77.9652 21.4116 78.9627 21.8875 79.7629 22.8403C80.5599 23.7942 80.9599 25.0483 80.9599 26.6037ZM78.6672 26.6868C78.6672 25.6924 78.4444 24.8727 77.999 24.2275C77.5123 23.5547 76.861 23.2183 76.0408 23.2183C75.4845 23.2183 74.981 23.4056 74.5292 23.7751C74.0774 24.1477 73.7829 24.6342 73.6446 25.2368C73.576 25.5178 73.5401 25.7478 73.5401 25.9288V27.6321C73.5401 28.3752 73.766 29.0023 74.2157 29.5144C74.6675 30.0254 75.2544 30.282 75.9786 30.282C76.8262 30.282 77.486 29.9519 77.9578 29.294C78.4307 28.635 78.6672 27.7663 78.6672 26.6868Z" fill="white"/>
<path d="M93.9861 27.8638C93.9861 29.0689 93.5713 30.0495 92.7384 30.8064C91.8232 31.6336 90.5491 32.0467 88.9118 32.0467C87.4002 32.0467 86.1884 31.7528 85.2711 31.1641L85.7925 29.2723C86.7806 29.8749 87.8647 30.1772 89.0459 30.1772C89.8935 30.1772 90.5533 29.9834 91.0273 29.5981C91.4991 29.2127 91.7345 28.6953 91.7345 28.0501C91.7345 27.4752 91.5403 26.9908 91.1508 26.598C90.7633 26.2051 90.1163 25.84 89.2127 25.5025C86.7531 24.5774 85.5244 23.2221 85.5244 21.4399C85.5244 20.2753 85.9551 19.3203 86.8175 18.5772C87.6768 17.833 88.8232 17.4615 90.2567 17.4615C91.535 17.4615 92.5969 17.6861 93.4446 18.1343L92.8819 19.9846C92.0902 19.5503 91.1951 19.3331 90.1933 19.3331C89.4016 19.3331 88.783 19.53 88.3397 19.9218C87.965 20.2721 87.7771 20.699 87.7771 21.2047C87.7771 21.7646 87.9913 22.2278 88.422 22.5919C88.7968 22.9283 89.4776 23.2924 90.4657 23.6852C91.6743 24.176 92.5621 24.7498 93.1332 25.4077C93.7021 26.0635 93.9861 26.8844 93.9861 27.8638Z" fill="white"/>
<path d="M101.427 23.3237H98.9463V28.2837C98.9463 29.5453 99.3833 30.1755 100.259 30.1755C100.662 30.1755 100.995 30.1404 101.259 30.0701L101.321 31.7937C100.878 31.9609 100.294 32.045 99.5712 32.045C98.6824 32.045 97.9878 31.7714 97.4864 31.2252C96.9871 30.678 96.7359 29.7603 96.7359 28.4711V23.3216H95.2581V21.6182H96.7359V19.7477L98.9463 19.0748V21.6182H101.427V23.3237Z" fill="white"/>
<path d="M112.62 26.6452C112.62 28.2155 112.174 29.5048 111.285 30.513C110.353 31.551 109.116 32.0684 107.574 32.0684C106.087 32.0684 104.904 31.5712 104.022 30.5768C103.139 29.5825 102.698 28.3273 102.698 26.8145C102.698 25.2314 103.152 23.9347 104.063 22.9265C104.972 21.9173 106.198 21.4127 107.741 21.4127C109.227 21.4127 110.423 21.9098 111.325 22.9052C112.189 23.8708 112.62 25.1175 112.62 26.6452ZM110.285 26.7187C110.285 25.7765 110.085 24.9685 109.681 24.2946C109.209 23.4791 108.534 23.0724 107.66 23.0724C106.756 23.0724 106.068 23.4801 105.597 24.2946C105.192 24.9695 104.993 25.7903 104.993 26.7613C104.993 27.7034 105.192 28.5115 105.597 29.1843C106.083 29.9998 106.763 30.4065 107.64 30.4065C108.5 30.4065 109.174 29.9913 109.661 29.163C110.076 28.4764 110.285 27.6598 110.285 26.7187Z" fill="white"/>
<path d="M119.935 23.6175C119.712 23.576 119.475 23.5547 119.225 23.5547C118.434 23.5547 117.822 23.856 117.391 24.4596C117.016 24.9919 116.828 25.6647 116.828 26.477V31.8374H114.579L114.6 24.8386C114.6 23.6611 114.571 22.5891 114.515 21.6224H116.476L116.558 23.577H116.62C116.858 22.9053 117.233 22.3644 117.746 21.9588C118.247 21.5937 118.788 21.4116 119.372 21.4116C119.58 21.4116 119.768 21.4265 119.935 21.4531V23.6175Z" fill="white"/>
<path d="M130 26.245C130 26.6517 129.974 26.9945 129.918 27.2745H123.166C123.192 28.2838 123.519 29.0556 124.146 29.5879C124.715 30.0638 125.45 30.3023 126.354 30.3023C127.354 30.3023 128.266 30.1415 129.086 29.8189L129.438 31.3946C128.48 31.8162 127.348 32.0259 126.043 32.0259C124.472 32.0259 123.239 31.5596 122.342 30.628C121.446 29.6965 120.998 28.4456 120.998 26.8764C120.998 25.3359 121.415 24.053 122.25 23.0299C123.124 21.9376 124.305 21.3915 125.791 21.3915C127.251 21.3915 128.356 21.9376 129.107 23.0299C129.701 23.8976 130 24.9707 130 26.245ZM127.854 25.6563C127.869 24.9835 127.722 24.4022 127.417 23.9114C127.027 23.2801 126.429 22.965 125.624 22.965C124.888 22.965 124.289 23.2726 123.832 23.8901C123.457 24.3809 123.235 24.9696 123.166 25.6552H127.854V25.6563Z" fill="white"/>
<path d="M52.3742 7C52.814 7 53.2088 7.06111 53.5586 7.18333C53.9119 7.30185 54.1913 7.48148 54.3968 7.72222C54.6023 7.96296 54.7051 8.26296 54.7051 8.62222C54.7051 8.99259 54.6005 9.28889 54.3914 9.51111C54.1859 9.72963 53.9065 9.88704 53.5532 9.98333V10.0333C53.8019 10.0963 54.0273 10.187 54.2292 10.3056C54.4311 10.4204 54.5915 10.5759 54.7105 10.7722C54.8331 10.9648 54.8944 11.213 54.8944 11.5167C54.8944 11.8611 54.7952 12.1741 54.5969 12.4556C54.4022 12.737 54.103 12.9611 53.6992 13.1278C53.2954 13.2944 52.7816 13.3778 52.1579 13.3778C51.8586 13.3778 51.5738 13.3611 51.3034 13.3278C51.0366 13.2981 50.7932 13.2556 50.5733 13.2C50.3533 13.1407 50.1622 13.0704 50 12.9889V11.8667C50.2488 11.9889 50.5498 12.1 50.9032 12.2C51.2565 12.2963 51.6351 12.3444 52.0389 12.3444C52.3381 12.3444 52.6085 12.3167 52.8501 12.2611C53.0953 12.2019 53.2882 12.1056 53.4288 11.9722C53.573 11.8389 53.6451 11.6611 53.6451 11.4389C53.6451 11.2352 53.582 11.0667 53.4558 10.9333C53.3296 10.8 53.1403 10.7019 52.888 10.6389C52.6356 10.5722 52.3165 10.5389 51.9307 10.5389H51.2168V9.57778H51.8442C52.3742 9.57778 52.7888 9.51852 53.0881 9.4C53.3909 9.27778 53.5423 9.06667 53.5423 8.76667C53.5423 8.51481 53.436 8.32593 53.2233 8.2C53.0105 8.07407 52.6842 8.01111 52.2444 8.01111C51.9415 8.01111 51.6423 8.0463 51.3466 8.11667C51.051 8.18333 50.7553 8.27963 50.4597 8.40556L50.0595 7.44444C50.3876 7.30741 50.7391 7.2 51.1141 7.12222C51.489 7.04074 51.9091 7 52.3742 7Z" fill="white"/>
<path d="M58.6152 7C59.3723 7 59.9438 7.17222 60.3296 7.51667C60.7189 7.86111 60.9136 8.39815 60.9136 9.12778V13.2667H60.0105L59.7671 12.3944H59.7238C59.5544 12.6167 59.3795 12.8 59.1993 12.9444C59.019 13.0889 58.8099 13.1963 58.5719 13.2667C58.3376 13.3407 58.0509 13.3778 57.712 13.3778C57.3551 13.3778 57.036 13.3111 56.7548 13.1778C56.4736 13.0407 56.2518 12.8333 56.0896 12.5556C55.9273 12.2778 55.8462 11.9259 55.8462 11.5C55.8462 10.8667 56.0752 10.3907 56.533 10.0722C56.9945 9.7537 57.6904 9.57778 58.6206 9.54444L59.659 9.50556V9.18333C59.659 8.75741 59.5616 8.4537 59.3669 8.27222C59.1758 8.09074 58.9054 8 58.5557 8C58.2564 8 57.9662 8.04444 57.685 8.13333C57.4038 8.22222 57.1297 8.33148 56.8629 8.46111L56.4519 7.53889C56.744 7.37963 57.0757 7.25 57.447 7.15C57.822 7.05 58.2114 7 58.6152 7ZM59.6535 10.3278L58.8802 10.3556C58.2456 10.3778 57.8004 10.4889 57.5444 10.6889C57.2884 10.8889 57.1604 11.163 57.1604 11.5111C57.1604 11.8148 57.2487 12.037 57.4254 12.1778C57.6021 12.3148 57.8346 12.3833 58.123 12.3833C58.5629 12.3833 58.927 12.2556 59.2155 12C59.5075 11.7407 59.6535 11.3611 59.6535 10.8611V10.3278Z" fill="white"/>
<path d="M66.576 7.11667V8.14444H63.9692V13.2667H62.6929V7.11667H66.576Z" fill="white"/>
<path d="M70.8051 7C71.5154 7 72.0851 7.26667 72.5141 7.8C72.9468 8.33333 73.1631 9.12593 73.1631 10.1778C73.1631 10.8741 73.0621 11.4611 72.8602 11.9389C72.6619 12.413 72.3825 12.7722 72.022 13.0167C71.665 13.2574 71.2486 13.3778 70.7727 13.3778C70.4698 13.3778 70.2066 13.337 69.9831 13.2556C69.7596 13.1741 69.5685 13.0685 69.4098 12.9389C69.2512 12.8056 69.1178 12.6611 69.0096 12.5056H68.9339C68.9519 12.6537 68.9682 12.8185 68.9826 13C69.0006 13.1778 69.0096 13.3407 69.0096 13.4889V15.9944H67.7333V7.11667H68.7717L68.9501 7.96667H69.0096C69.1214 7.79259 69.2566 7.63148 69.4152 7.48333C69.5775 7.33519 69.7722 7.21852 69.9993 7.13333C70.2301 7.04444 70.4987 7 70.8051 7ZM70.4644 8.06667C70.1147 8.06667 69.8335 8.13889 69.6208 8.28333C69.4116 8.42407 69.2584 8.63704 69.1611 8.92222C69.0673 9.20741 69.0168 9.56481 69.0096 9.99444V10.1778C69.0096 10.6333 69.0547 11.0204 69.1448 11.3389C69.2386 11.6537 69.3918 11.8944 69.6045 12.0611C69.8209 12.2241 70.1129 12.3056 70.4807 12.3056C70.7907 12.3056 71.0467 12.2185 71.2486 12.0444C71.4541 11.8704 71.6073 11.6222 71.7083 11.3C71.8093 10.9778 71.8597 10.5981 71.8597 10.1611C71.8597 9.49815 71.7444 8.98333 71.5136 8.61667C71.2865 8.25 70.9367 8.06667 70.4644 8.06667Z" fill="white"/>
<path d="M73.7309 7.11667H75.1154L76.3431 10.6278C76.3972 10.787 76.4458 10.9444 76.4891 11.1C76.536 11.2519 76.5756 11.4019 76.6081 11.55C76.6441 11.6981 76.673 11.8463 76.6946 11.9944H76.7271C76.7631 11.8019 76.8136 11.587 76.8785 11.35C76.947 11.1093 77.0227 10.8685 77.1056 10.6278L78.2846 7.11667H79.6529L77.084 14.1111C76.9362 14.5111 76.7541 14.8519 76.5378 15.1333C76.3251 15.4185 76.0727 15.6333 75.7806 15.7778C75.4886 15.9259 75.1551 16 74.7801 16C74.5999 16 74.443 15.9889 74.3096 15.9667C74.1762 15.9481 74.0626 15.9278 73.9689 15.9056V14.8611C74.0446 14.8796 74.1402 14.8963 74.2555 14.9111C74.3709 14.9259 74.4899 14.9333 74.6125 14.9333C74.8396 14.9333 75.0361 14.887 75.202 14.7944C75.3678 14.7019 75.5084 14.5704 75.6238 14.4C75.7392 14.2333 75.8347 14.0426 75.9104 13.8278L76.1213 13.25L73.7309 7.11667Z" fill="white"/>
<path d="M82.4218 7C82.8617 7 83.2565 7.06111 83.6062 7.18333C83.9596 7.30185 84.239 7.48148 84.4445 7.72222C84.65 7.96296 84.7528 8.26296 84.7528 8.62222C84.7528 8.99259 84.6482 9.28889 84.4391 9.51111C84.2336 9.72963 83.9541 9.88704 83.6008 9.98333V10.0333C83.8496 10.0963 84.0749 10.187 84.2768 10.3056C84.4787 10.4204 84.6392 10.5759 84.7582 10.7722C84.8807 10.9648 84.942 11.213 84.942 11.5167C84.942 11.8611 84.8429 12.1741 84.6446 12.4556C84.4499 12.737 84.1506 12.9611 83.7468 13.1278C83.343 13.2944 82.8293 13.3778 82.2055 13.3778C81.9063 13.3778 81.6214 13.3611 81.351 13.3278C81.0842 13.2981 80.8409 13.2556 80.6209 13.2C80.401 13.1407 80.2099 13.0704 80.0477 12.9889V11.8667C80.2964 11.9889 80.5975 12.1 80.9508 12.2C81.3042 12.2963 81.6827 12.3444 82.0865 12.3444C82.3858 12.3444 82.6562 12.3167 82.8978 12.2611C83.1429 12.2019 83.3358 12.1056 83.4764 11.9722C83.6206 11.8389 83.6928 11.6611 83.6928 11.4389C83.6928 11.2352 83.6297 11.0667 83.5035 10.9333C83.3773 10.8 83.188 10.7019 82.9356 10.6389C82.6832 10.5722 82.3642 10.5389 81.9784 10.5389H81.2645V9.57778H81.8918C82.4218 9.57778 82.8365 9.51852 83.1357 9.4C83.4386 9.27778 83.59 9.06667 83.59 8.76667C83.59 8.51481 83.4836 8.32593 83.2709 8.2C83.0582 8.07407 82.7319 8.01111 82.292 8.01111C81.9892 8.01111 81.6899 8.0463 81.3943 8.11667C81.0986 8.18333 80.803 8.27963 80.5074 8.40556L80.1072 7.44444C80.4352 7.30741 80.7868 7.2 81.1617 7.12222C81.5367 7.04074 81.9567 7 82.4218 7Z" fill="white"/>
<path d="M87.5379 7.11667V10.2556C87.5379 10.3556 87.5343 10.4833 87.5271 10.6389C87.5235 10.7907 87.5163 10.95 87.5055 11.1167C87.4947 11.2796 87.4839 11.4296 87.473 11.5667C87.4622 11.7037 87.4532 11.8056 87.446 11.8722L90.4583 7.11667H92.0051V13.2667H90.7882V10.1611C90.7882 9.99815 90.7918 9.80926 90.7991 9.59444C90.8099 9.37963 90.8207 9.17222 90.8315 8.97222C90.8459 8.77222 90.8549 8.62037 90.8585 8.51667L87.857 13.2667H86.3157V7.11667H87.5379Z" fill="white"/>
<path d="M98.3542 8.14444H96.3857V13.2667H95.1202V8.14444H93.1624V7.11667H98.3542V8.14444Z" fill="white"/>
<path d="M101.897 7C102.43 7 102.888 7.11296 103.27 7.33889C103.652 7.56481 103.946 7.88519 104.152 8.3C104.357 8.71481 104.46 9.21111 104.46 9.78889V10.4889H100.463C100.478 11.0852 100.633 11.5444 100.929 11.8667C101.228 12.1889 101.646 12.35 102.183 12.35C102.565 12.35 102.908 12.313 103.211 12.2389C103.517 12.1611 103.833 12.0481 104.157 11.9V12.9611C103.858 13.1056 103.553 13.2111 103.243 13.2778C102.933 13.3444 102.562 13.3778 102.129 13.3778C101.541 13.3778 101.024 13.2611 100.577 13.0278C100.134 12.7907 99.7856 12.4389 99.5332 11.9722C99.2844 11.5056 99.1601 10.9259 99.1601 10.2333C99.1601 9.54444 99.2736 8.95926 99.5008 8.47778C99.7279 7.9963 100.047 7.62963 100.458 7.37778C100.869 7.12593 101.349 7 101.897 7ZM101.897 7.98333C101.496 7.98333 101.172 8.11667 100.923 8.38333C100.678 8.65 100.534 9.04074 100.49 9.55556H103.216C103.213 9.24815 103.162 8.97593 103.065 8.73889C102.971 8.50185 102.827 8.31667 102.632 8.18333C102.441 8.05 102.196 7.98333 101.897 7.98333Z" fill="white"/>
<path d="M113.805 8.69444C113.805 9.05 113.699 9.34074 113.486 9.56667C113.277 9.78889 112.989 9.93519 112.621 10.0056V10.05C113.014 10.1019 113.342 10.2444 113.605 10.4778C113.868 10.7111 114 11.0352 114 11.45C114 11.8019 113.913 12.1148 113.74 12.3889C113.571 12.6593 113.301 12.8741 112.929 13.0333C112.561 13.1889 112.08 13.2667 111.485 13.2667H108.77V7.11667H111.474C111.921 7.11667 112.32 7.16667 112.67 7.26667C113.023 7.36667 113.301 7.53148 113.502 7.76111C113.704 7.99074 113.805 8.30185 113.805 8.69444ZM112.675 11.4056C112.675 11.1019 112.561 10.8833 112.334 10.75C112.111 10.6167 111.783 10.55 111.35 10.55H110.047V12.3056H111.377C111.781 12.3056 112.098 12.237 112.329 12.1C112.56 11.9593 112.675 11.7278 112.675 11.4056ZM112.513 8.81111C112.513 8.57037 112.424 8.39259 112.248 8.27778C112.071 8.15926 111.793 8.1 111.415 8.1H110.047V9.58889H111.242C111.66 9.58889 111.976 9.52778 112.188 9.40556C112.405 9.27963 112.513 9.08148 112.513 8.81111Z" fill="white"/>
</svg>
