<svg width="146" height="43" viewBox="0 0 146 43" fill="none" xmlns="http://www.w3.org/2000/svg">
<path d="M5.40741 42.3808H140.593C143.216 42.3808 145.374 40.2413 145.374 37.625V5.375C145.374 2.75874 143.216 0.619206 140.593 0.619206H5.40741C2.78405 0.619206 0.626495 2.75874 0.626495 5.375V37.625C0.626495 40.2413 2.78405 42.3808 5.40741 42.3808Z" fill="#1F1F1F" stroke="#1F1F1F"/>
<path d="M73.4025 23.9739C70.8537 23.9739 68.7715 25.8631 68.7715 28.4697C68.7715 31.055 70.8537 32.964 73.4025 32.964C75.9567 32.964 78.0388 31.055 78.0388 28.4697C78.0388 25.8631 75.9567 23.9739 73.4025 23.9739ZM73.4025 31.1938C72.0039 31.1938 70.8008 30.0695 70.8008 28.4697C70.8008 26.8487 72.0039 25.7442 73.4025 25.7442C74.801 25.7442 76.0096 26.8487 76.0096 28.4697C76.0096 30.0695 74.801 31.1938 73.4025 31.1938ZM63.2982 23.9739C60.744 23.9739 58.6673 25.8631 58.6673 28.4697C58.6673 31.055 60.744 32.964 63.2982 32.964C65.8511 32.964 67.9292 31.055 67.9292 28.4697C67.9292 25.8631 65.8511 23.9739 63.2982 23.9739ZM63.2982 31.1938C61.8984 31.1938 60.6911 30.0695 60.6911 28.4697C60.6911 26.8487 61.8984 25.7442 63.2982 25.7442C64.6967 25.7442 65.8999 26.8487 65.8999 28.4697C65.8999 30.0695 64.6967 31.1938 63.2982 31.1938ZM51.2747 25.3519V27.2622H55.9585C55.8215 28.3296 55.4552 29.1144 54.8937 29.6613C54.21 30.3218 53.1452 31.055 51.2747 31.055C48.3922 31.055 46.1351 28.7894 46.1351 25.982C46.1351 23.1747 48.3922 20.909 51.2747 20.909C52.8332 20.909 53.9672 21.5022 54.8041 22.271L56.1864 20.9248C55.0157 19.8363 53.4585 19 51.2747 19C47.3219 19 44 22.1323 44 25.982C44 29.8317 47.3219 32.964 51.2747 32.964C53.4111 32.964 55.0157 32.2823 56.2772 31.0035C57.5699 29.7445 57.9728 27.9742 57.9728 26.5448C57.9728 26.1009 57.9348 25.6927 57.867 25.3519H51.2747ZM100.441 26.8328C100.059 25.8275 98.8834 23.9739 96.4879 23.9739C94.1141 23.9739 92.1378 25.7957 92.1378 28.4697C92.1378 30.9877 94.0938 32.964 96.7158 32.964C98.8359 32.964 100.059 31.705 100.563 30.9718L98.9892 29.9506C98.4643 30.6984 97.7494 31.1938 96.7158 31.1938C95.689 31.1938 94.9524 30.7353 94.4804 29.8317L100.654 27.3441L100.441 26.8328ZM94.1467 28.3296C94.0938 26.5963 95.5289 25.7086 96.5571 25.7086C97.3628 25.7086 98.0465 26.1009 98.2744 26.6624L94.1467 28.3296ZM89.1292 32.6906H91.1584V19.4796H89.1292V32.6906ZM85.8058 24.9753H85.738C85.2823 24.4495 84.4128 23.9739 83.3113 23.9739C80.9999 23.9739 78.8866 25.9503 78.8866 28.4842C78.8866 31.0035 80.9999 32.964 83.3113 32.964C84.4128 32.964 85.2823 32.4845 85.738 31.9428H85.8058V32.5875C85.8058 34.3063 84.8631 35.2297 83.3425 35.2297C82.1027 35.2297 81.3336 34.3578 81.0162 33.6246L79.2515 34.3419C79.7601 35.5336 81.1071 37 83.3425 37C85.7217 37 87.7293 35.6366 87.7293 32.3193V24.2474H85.8058V24.9753ZM83.485 31.1938C82.0865 31.1938 80.9158 30.0537 80.9158 28.4842C80.9158 26.9002 82.0865 25.7442 83.485 25.7442C84.8631 25.7442 85.9496 26.9002 85.9496 28.4842C85.9496 30.0537 84.8631 31.1938 83.485 31.1938ZM109.941 19.4796H105.088V32.6906H107.112V27.6849H109.941C112.189 27.6849 114.393 26.1009 114.393 23.5816C114.393 21.0636 112.183 19.4796 109.941 19.4796ZM109.994 25.8473H107.112V21.3172H109.994C111.505 21.3172 112.368 22.5392 112.368 23.5816C112.368 24.6041 111.505 25.8473 109.994 25.8473ZM122.505 23.9488C121.042 23.9488 119.522 24.5777 118.896 25.9715L120.692 26.7047C121.079 25.9715 121.79 25.7337 122.541 25.7337C123.591 25.7337 124.656 26.348 124.672 27.4326V27.5713C124.306 27.3652 123.522 27.06 122.558 27.06C120.623 27.06 118.652 28.0971 118.652 30.0325C118.652 31.8028 120.237 32.9429 122.018 32.9429C123.38 32.9429 124.131 32.3444 124.603 31.6482H124.672V32.6694H126.627V27.6017C126.627 25.2594 124.831 23.9488 122.505 23.9488ZM122.26 31.1885C121.599 31.1885 120.676 30.8688 120.676 30.0695C120.676 29.047 121.826 28.6546 122.822 28.6546C123.713 28.6546 124.131 28.8462 124.672 29.0985C124.514 30.3218 123.432 31.1885 122.26 31.1885ZM133.748 24.2382L131.422 29.9651H131.353L128.948 24.2382H126.765L130.379 32.2414L128.317 36.6948H130.432L136 24.2382H133.748ZM115.505 32.6906H117.535V19.4796H115.505V32.6906Z" fill="white"/>
<path d="M48.4113 8C48.858 8 49.259 8.06111 49.6142 8.18333C49.973 8.30185 50.2568 8.48148 50.4655 8.72222C50.6742 8.96296 50.7786 9.26296 50.7786 9.62222C50.7786 9.99259 50.6724 10.2889 50.46 10.5111C50.2513 10.7296 49.9675 10.887 49.6087 10.9833V11.0333C49.8613 11.0963 50.0902 11.187 50.2953 11.3056C50.5003 11.4204 50.6633 11.5759 50.7841 11.7722C50.9086 11.9648 50.9708 12.213 50.9708 12.5167C50.9708 12.8611 50.8701 13.1741 50.6688 13.4556C50.471 13.737 50.1671 13.9611 49.757 14.1278C49.3469 14.2944 48.8251 14.3778 48.1916 14.3778C47.8876 14.3778 47.5984 14.3611 47.3237 14.3278C47.0528 14.2981 46.8056 14.2556 46.5822 14.2C46.3589 14.1407 46.1648 14.0704 46 13.9889V12.8667C46.2527 12.9889 46.5584 13.1 46.9173 13.2C47.2761 13.2963 47.6606 13.3444 48.0707 13.3444C48.3747 13.3444 48.6493 13.3167 48.8946 13.2611C49.1436 13.2019 49.3395 13.1056 49.4823 12.9722C49.6288 12.8389 49.702 12.6611 49.702 12.4389C49.702 12.2352 49.638 12.0667 49.5098 11.9333C49.3816 11.8 49.1894 11.7019 48.9331 11.6389C48.6768 11.5722 48.3527 11.5389 47.9609 11.5389H47.2358V10.5778H47.873C48.4113 10.5778 48.8324 10.5185 49.1363 10.4C49.4439 10.2778 49.5977 10.0667 49.5977 9.76667C49.5977 9.51481 49.4897 9.32593 49.2736 9.2C49.0576 9.07407 48.7262 9.01111 48.2794 9.01111C47.9719 9.01111 47.6679 9.0463 47.3677 9.11667C47.0674 9.18333 46.7671 9.27963 46.4669 9.40556L46.0604 8.44444C46.3936 8.30741 46.7507 8.2 47.1315 8.12222C47.5123 8.04074 47.9389 8 48.4113 8Z" fill="white"/>
<path d="M54.7498 8C55.5188 8 56.0991 8.17222 56.491 8.51667C56.8864 8.86111 57.0842 9.39815 57.0842 10.1278V14.2667H56.1669L55.9197 13.3944H55.8758C55.7037 13.6167 55.5261 13.8 55.343 13.9444C55.1599 14.0889 54.9475 14.1963 54.7058 14.2667C54.4678 14.3407 54.1767 14.3778 53.8325 14.3778C53.47 14.3778 53.1459 14.3111 52.8603 14.1778C52.5747 14.0407 52.3495 13.8333 52.1847 13.5556C52.0199 13.2778 51.9376 12.9259 51.9376 12.5C51.9376 11.8667 52.1701 11.3907 52.6351 11.0722C53.1038 10.7537 53.8105 10.5778 54.7553 10.5444L55.8099 10.5056V10.1833C55.8099 9.75741 55.711 9.4537 55.5133 9.27222C55.3192 9.09074 55.0446 9 54.6894 9C54.3854 9 54.0907 9.04444 53.8051 9.13333C53.5194 9.22222 53.2411 9.33148 52.9702 9.46111L52.5527 8.53889C52.8493 8.37963 53.1862 8.25 53.5634 8.15C53.9442 8.05 54.3397 8 54.7498 8ZM55.8044 11.3278L55.0189 11.3556C54.3745 11.3778 53.9222 11.4889 53.6622 11.6889C53.4023 11.8889 53.2723 12.163 53.2723 12.5111C53.2723 12.8148 53.362 13.037 53.5414 13.1778C53.7208 13.3148 53.957 13.3833 54.25 13.3833C54.6967 13.3833 55.0665 13.2556 55.3595 13C55.6561 12.7407 55.8044 12.3611 55.8044 11.8611V11.3278Z" fill="white"/>
<path d="M62.835 8.11667V9.14444H60.1875V14.2667H58.8912V8.11667H62.835Z" fill="white"/>
<path d="M67.1302 8C67.8516 8 68.4301 8.26667 68.8659 8.8C69.3053 9.33333 69.525 10.1259 69.525 11.1778C69.525 11.8741 69.4225 12.4611 69.2174 12.9389C69.016 13.413 68.7322 13.7722 68.3661 14.0167C68.0035 14.2574 67.5806 14.3778 67.0973 14.3778C66.7897 14.3778 66.5224 14.337 66.2953 14.2556C66.0683 14.1741 65.8742 14.0685 65.7131 13.9389C65.552 13.8056 65.4165 13.6611 65.3067 13.5056H65.2298C65.2481 13.6537 65.2645 13.8185 65.2792 14C65.2975 14.1778 65.3067 14.3407 65.3067 14.4889V16.9944H64.0104V8.11667H65.065L65.2462 8.96667H65.3067C65.4202 8.79259 65.5575 8.63148 65.7186 8.48333C65.8834 8.33519 66.0811 8.21852 66.3118 8.13333C66.5462 8.04444 66.819 8 67.1302 8ZM66.7842 9.06667C66.429 9.06667 66.1434 9.13889 65.9273 9.28333C65.7149 9.42407 65.5593 9.63704 65.4605 9.92222C65.3652 10.2074 65.314 10.5648 65.3067 10.9944V11.1778C65.3067 11.6333 65.3524 12.0204 65.444 12.3389C65.5392 12.6537 65.6948 12.8944 65.9109 13.0611C66.1306 13.2241 66.4272 13.3056 66.8007 13.3056C67.1156 13.3056 67.3756 13.2185 67.5806 13.0444C67.7893 12.8704 67.945 12.6222 68.0475 12.3C68.15 11.9778 68.2013 11.5981 68.2013 11.1611C68.2013 10.4981 68.0841 9.98333 67.8498 9.61667C67.6191 9.25 67.2639 9.06667 66.7842 9.06667Z" fill="white"/>
<path d="M70.1017 8.11667H71.5079L72.7547 11.6278C72.8096 11.787 72.8591 11.9444 72.903 12.1C72.9506 12.2519 72.9909 12.4019 73.0238 12.55C73.0604 12.6981 73.0897 12.8463 73.1117 12.9944H73.1447C73.1813 12.8019 73.2326 12.587 73.2985 12.35C73.368 12.1093 73.4449 11.8685 73.5292 11.6278L74.7266 8.11667H76.1162L73.5072 15.1111C73.3571 15.5111 73.1721 15.8519 72.9524 16.1333C72.7364 16.4185 72.4801 16.6333 72.1835 16.7778C71.8869 16.9259 71.5481 17 71.1673 17C70.9842 17 70.8249 16.9889 70.6895 16.9667C70.554 16.9481 70.4386 16.9278 70.3434 16.9056V15.8611C70.4203 15.8796 70.5174 15.8963 70.6345 15.9111C70.7517 15.9259 70.8725 15.9333 70.997 15.9333C71.2277 15.9333 71.4273 15.887 71.5957 15.7944C71.7642 15.7019 71.907 15.5704 72.0242 15.4C72.1413 15.2333 72.2384 15.0426 72.3153 14.8278L72.5295 14.25L70.1017 8.11667Z" fill="white"/>
<path d="M78.9284 8C79.3752 8 79.7761 8.06111 80.1313 8.18333C80.4902 8.30185 80.774 8.48148 80.9827 8.72222C81.1914 8.96296 81.2958 9.26296 81.2958 9.62222C81.2958 9.99259 81.1896 10.2889 80.9772 10.5111C80.7685 10.7296 80.4847 10.887 80.1258 10.9833V11.0333C80.3785 11.0963 80.6073 11.187 80.8124 11.3056C81.0175 11.4204 81.1804 11.5759 81.3013 11.7722C81.4258 11.9648 81.488 12.213 81.488 12.5167C81.488 12.8611 81.3873 13.1741 81.1859 13.4556C80.9882 13.737 80.6842 13.9611 80.2741 14.1278C79.864 14.2944 79.3422 14.3778 78.7087 14.3778C78.4048 14.3778 78.1155 14.3611 77.8409 14.3278C77.5699 14.2981 77.3227 14.2556 77.0994 14.2C76.876 14.1407 76.6819 14.0704 76.5172 13.9889V12.8667C76.7698 12.9889 77.0756 13.1 77.4344 13.2C77.7933 13.2963 78.1778 13.3444 78.5879 13.3444C78.8918 13.3444 79.1664 13.3167 79.4118 13.2611C79.6608 13.2019 79.8567 13.1056 79.9995 12.9722C80.146 12.8389 80.2192 12.6611 80.2192 12.4389C80.2192 12.2352 80.1551 12.0667 80.027 11.9333C79.8988 11.8 79.7066 11.7019 79.4502 11.6389C79.1939 11.5722 78.8698 11.5389 78.478 11.5389H77.753V10.5778H78.3901C78.9284 10.5778 79.3495 10.5185 79.6535 10.4C79.961 10.2778 80.1148 10.0667 80.1148 9.76667C80.1148 9.51481 80.0068 9.32593 79.7908 9.2C79.5747 9.07407 79.2433 9.01111 78.7966 9.01111C78.489 9.01111 78.1851 9.0463 77.8848 9.11667C77.5846 9.18333 77.2843 9.27963 76.984 9.40556L76.5776 8.44444C76.9108 8.30741 77.2678 8.2 77.6486 8.12222C78.0295 8.04074 78.4561 8 78.9284 8Z" fill="white"/>
<path d="M84.1245 8.11667V11.2556C84.1245 11.3556 84.1208 11.4833 84.1135 11.6389C84.1098 11.7907 84.1025 11.95 84.0915 12.1167C84.0805 12.2796 84.0695 12.4296 84.0586 12.5667C84.0476 12.7037 84.0384 12.8056 84.0311 12.8722L87.0905 8.11667H88.6614V14.2667H87.4256V11.1611C87.4256 10.9981 87.4292 10.8093 87.4365 10.5944C87.4475 10.3796 87.4585 10.1722 87.4695 9.97222C87.4841 9.77222 87.4933 9.62037 87.497 9.51667L84.4485 14.2667H82.8831V8.11667H84.1245Z" fill="white"/>
<path d="M95.1098 9.14444H93.1104V14.2667H91.8252V9.14444H89.8368V8.11667H95.1098V9.14444Z" fill="white"/>
<path d="M98.7075 8C99.2494 8 99.7144 8.11296 100.103 8.33889C100.491 8.56481 100.789 8.88519 100.998 9.3C101.207 9.71481 101.311 10.2111 101.311 10.7889V11.4889H97.2519C97.2665 12.0852 97.424 12.5444 97.7243 12.8667C98.0282 13.1889 98.453 13.35 98.9986 13.35C99.3867 13.35 99.7346 13.313 100.042 13.2389C100.353 13.1611 100.674 13.0481 101.003 12.9V13.9611C100.699 14.1056 100.39 14.2111 100.075 14.2778C99.7602 14.3444 99.3831 14.3778 98.9436 14.3778C98.3468 14.3778 97.8213 14.2611 97.3672 14.0278C96.9169 13.7907 96.5635 13.4389 96.3072 12.9722C96.0545 12.5056 95.9282 11.9259 95.9282 11.2333C95.9282 10.5444 96.0435 9.95926 96.2742 9.47778C96.5049 8.9963 96.829 8.62963 97.2464 8.37778C97.6639 8.12593 98.1509 8 98.7075 8ZM98.7075 8.98333C98.301 8.98333 97.9714 9.11667 97.7188 9.38333C97.4698 9.65 97.3233 10.0407 97.2794 10.5556H100.048C100.044 10.2481 99.9927 9.97593 99.8939 9.73889C99.7987 9.50185 99.6522 9.31667 99.4545 9.18333C99.2604 9.05 99.0114 8.98333 98.7075 8.98333Z" fill="white"/>
<path d="M110.802 9.69444C110.802 10.05 110.694 10.3407 110.478 10.5667C110.266 10.7889 109.973 10.9352 109.599 11.0056V11.05C109.999 11.1019 110.332 11.2444 110.599 11.4778C110.866 11.7111 111 12.0352 111 12.45C111 12.8019 110.912 13.1148 110.736 13.3889C110.564 13.6593 110.29 13.8741 109.912 14.0333C109.539 14.1889 109.05 14.2667 108.446 14.2667H105.689V8.11667H108.435C108.889 8.11667 109.294 8.16667 109.649 8.26667C110.008 8.36667 110.29 8.53148 110.495 8.76111C110.7 8.99074 110.802 9.30185 110.802 9.69444ZM109.654 12.4056C109.654 12.1019 109.539 11.8833 109.308 11.75C109.081 11.6167 108.748 11.55 108.309 11.55H106.985V13.3056H108.336C108.746 13.3056 109.068 13.237 109.303 13.1C109.537 12.9593 109.654 12.7278 109.654 12.4056ZM109.49 9.81111C109.49 9.57037 109.4 9.39259 109.22 9.27778C109.041 9.15926 108.759 9.1 108.375 9.1H106.985V10.5889H108.199C108.624 10.5889 108.944 10.5278 109.16 10.4056C109.38 10.2796 109.49 10.0815 109.49 9.81111Z" fill="white"/>
<path d="M14.5253 8.43228C14.1926 8.76703 14 9.2882 14 9.96313V34.0377C14 34.7126 14.1926 35.2338 14.5253 35.5685L14.6074 35.642L28.6439 22.1569V21.8385L14.6074 8.35336L14.5253 8.43228Z" fill="url(#paint0_linear_79_5839)"/>
<path d="M33.3176 26.6541L28.6439 22.1568V21.8384L33.3232 17.3411L33.428 17.3996L38.9696 20.43C40.5511 21.29 40.5511 22.7052 38.9696 23.5706L33.428 26.5956L33.3176 26.6541V26.6541Z" fill="url(#paint1_linear_79_5839)"/>
<path d="M33.4281 26.5957L28.644 21.9977L14.5253 35.5686C15.0506 36.0993 15.9072 36.1632 16.8813 35.6325L33.4281 26.5957" fill="url(#paint2_linear_79_5839)"/>
<path d="M33.4281 17.3997L16.8813 8.36287C15.9072 7.83762 15.0506 7.90158 14.5253 8.43227L28.644 21.9977L33.4281 17.3997Z" fill="url(#paint3_linear_79_5839)"/>
<defs>
<linearGradient id="paint0_linear_79_5839" x1="27.3977" y1="34.2884" x2="9.1426" y2="15.2945" gradientUnits="userSpaceOnUse">
<stop stop-color="#00A0FF"/>
<stop offset="0.0066" stop-color="#00A1FF"/>
<stop offset="0.2601" stop-color="#00BEFF"/>
<stop offset="0.5122" stop-color="#00D2FF"/>
<stop offset="0.7604" stop-color="#00DFFF"/>
<stop offset="1" stop-color="#00E3FF"/>
</linearGradient>
<linearGradient id="paint1_linear_79_5839" x1="41.0289" y1="21.9961" x2="13.6219" y2="21.9961" gradientUnits="userSpaceOnUse">
<stop stop-color="#FFE000"/>
<stop offset="0.4087" stop-color="#FFBD00"/>
<stop offset="0.7754" stop-color="#FFA500"/>
<stop offset="1" stop-color="#FF9C00"/>
</linearGradient>
<linearGradient id="paint2_linear_79_5839" x1="30.8267" y1="19.4982" x2="6.07129" y2="-6.25912" gradientUnits="userSpaceOnUse">
<stop stop-color="#FF3A44"/>
<stop offset="1" stop-color="#C31162"/>
</linearGradient>
<linearGradient id="paint3_linear_79_5839" x1="10.9714" y1="43.578" x2="22.0257" y2="32.0763" gradientUnits="userSpaceOnUse">
<stop stop-color="#32A071"/>
<stop offset="0.0685" stop-color="#2DA771"/>
<stop offset="0.4762" stop-color="#15CF74"/>
<stop offset="0.8009" stop-color="#06E775"/>
<stop offset="1" stop-color="#00F076"/>
</linearGradient>
</defs>
</svg>
